<?xml version="1.0" encoding="UTF-8"?>
<svg id="Layer_1" data-name="Layer 1" xmlns="http://www.w3.org/2000/svg" version="1.1" xmlns:krita="http://krita.org/namespaces/svg/krita" xmlns:sodipodi="http://sodipodi.sourceforge.net/DTD/sodipodi-0.dtd" viewBox="0 0 136.8 28.8">
  <defs>
    <style>
      .cls-1 {
        fill: #000;
        stroke-width: 0px;
      }

      .cls-2 {
        isolation: isolate;
      }
    </style>
  </defs>
  <g id="shape0" class="cls-2" krita:useRichText="true">
    <g class="cls-2">
      <path class="cls-1" d="M.7.8h3v27.3H.7V.8ZM2.5,24.5h5.8c1.5,0,2.6-.4,3.3-1.1.7-.7,1-1.8,1-3.1h0c0-1-.1-1.8-.4-2.4-.2-.7-.6-1.2-1.2-1.5-.5-.4-1.2-.5-2.1-.5H2.5v-3.4h6.5c1.1,0,1.9-.3,2.5-1,.6-.7.8-1.6.8-2.9s-.3-2.4-.9-3.1-1.6-1-2.8-1H2.5V.8h6.6c1.4,0,2.5.3,3.5.9.9.6,1.6,1.4,2.1,2.5s.7,2.4.7,3.9-.1,1.8-.4,2.6c-.3.8-.7,1.5-1.3,2.1-.6.6-1.3,1-2.2,1.2.9.2,1.6.6,2.2,1.2.6.6,1.1,1.4,1.4,2.3s.5,1.9.5,3h0c0,1.5-.3,2.8-.8,4-.5,1.1-1.2,2-2.2,2.6-.9.6-2.1.9-3.3.9H2.5v-3.5Z"/>
      <path class="cls-1" d="M23.1,28h-3V.8h3v27.3Z"/>
      <path class="cls-1" d="M33.9.8h2.6l7.9,27.3h-3.2l-5.9-22-5.9,22h-3.2L33.9.8ZM29.6,18.4h11.2v3.6h-11.2v-3.6Z"/>
      <path class="cls-1" d="M47.5.8h2.7l10.4,21.1-.4.5V.8h3v27.2h-2.7l-10.4-20.7.4-.5v21.2h-3V.8Z"/>
      <path class="cls-1" d="M71.6,27.1c-1.1-.8-2-2-2.6-3.6-.6-1.5-.9-3.3-.9-5.3v-7.5c0-2,.3-3.8.9-5.3.6-1.5,1.5-2.7,2.6-3.6s2.4-1.3,3.9-1.3,2.3.3,3.4,1,1.9,1.6,2.6,2.8c.7,1.2,1.2,2.6,1.4,4.3h-3.1c-.2-.8-.5-1.6-.9-2.3-.4-.7-.9-1.2-1.5-1.5-.6-.4-1.2-.5-1.8-.5s-1.6.3-2.3.8c-.7.5-1.2,1.3-1.5,2.3-.4,1-.5,2.1-.5,3.4v7.5c0,1.3.2,2.4.5,3.4.4,1,.9,1.7,1.5,2.3.7.5,1.4.8,2.3.8s1.2-.2,1.8-.5c.6-.3,1.1-.8,1.5-1.5.4-.7.7-1.4.9-2.4h3.1c-.2,1.6-.7,3-1.4,4.3-.7,1.2-1.6,2.2-2.6,2.8-1,.7-2.1,1-3.4,1s-2.8-.4-3.9-1.3Z"/>
      <path class="cls-1" d="M92,.8h2.6l7.9,27.3h-3.2l-5.9-22-5.9,22h-3.2L92,.8ZM87.8,18.4h11.2v3.6h-11.2v-3.6Z"/>
      <path class="cls-1" d="M119.5.8h2.6l7.9,27.3h-3.2l-5.9-22-5.9,22h-3.2L119.5.8ZM115.3,18.4h11.2v3.6h-11.2v-3.6Z"/>
      <path class="cls-1" d="M136.2,28h-3V.8h3v27.3Z"/>
    </g>
  </g>
</svg>