<?xml version="1.0" encoding="UTF-8"?>
<svg id="Layer_1" data-name="Layer 1" xmlns="http://www.w3.org/2000/svg" version="1.1" viewBox="0 0 283 64">
  <defs>
    <style>
      .cls-1 {
        fill: #000;
        stroke-width: 0px;
      }

      .cls-2 {
        isolation: isolate;
      }
    </style>
  </defs>
  <rect class="cls-1" x="9.4" y="9.4" width="45.3" height="45.3" transform="translate(-13.3 32) rotate(-45)"/>
  <rect class="cls-1" x="9.4" y="9.4" width="45.3" height="45.3"/>
  <g class="cls-2">
    <g class="cls-2">
      <path class="cls-1" d="M68.7,8.5h5.3c5.8,0,8.2,2.6,8.2,10.7v.6c0,7.3-1.7,9.6-4.5,10.4,2.5.9,5.5,2.7,5.5,11.6v1.5c0,6.4-.6,13-8.9,13h-5.6V8.5ZM74.1,29.9c5,0,6.8-1.9,6.8-9.7v-.9c0-6.6-1.5-9.6-7.1-9.6h-4v20.2h4.2ZM69.9,55.4h4.3c6.6,0,7.7-4.5,7.7-11.9v-1.7c0-9.1-3.2-10.9-8.1-10.9h-4v24.5Z"/>
      <path class="cls-1" d="M90.7,8.5v37.9c0,4.8.9,9.6,6.4,9.6s6.4-4.3,6.4-9.6V8.6h1.2v37.9c0,7-1.9,10.7-7.7,10.7s-7.6-3.4-7.6-10.2V8.5h1.2Z"/>
      <path class="cls-1" d="M127.1,56.5h-1.1c0-1.4,0-2.2,0-5.6-.9,4.6-3.5,6.2-6.8,6.2s-7.3-2.3-7.3-11.3v-27c0-7.3,2.6-10.8,7.8-10.8s7.3,6.3,7.3,10.9v1.1h-1.2v-1.4c0-5.3-1.1-9.6-6.1-9.6s-6.6,3.2-6.6,9.9v26.6c0,6.3,1.4,10.4,6.1,10.4s6.8-5.7,6.8-14.3v-8.9h-7.5v-1.1h8.6v24.8Z"/>
      <path class="cls-1" d="M132.1,55.7l14-46.1h-13.1v-1.1h14.5v.8l-14.1,46.1h14l-.3,1.1h-15v-.8Z"/>
      <path class="cls-1" d="M153.9,8.5v48h-1.2V8.5h1.2Z"/>
      <path class="cls-1" d="M162.3,56.5V8.5h1.7l10.9,37.4c.8,2.8,1.7,6,2.4,8.7h0c-.2-7.6-.1-13.4-.1-21.2V8.5h1.2v48h-1.7l-11.1-38.5c-.7-2.5-1.7-5.5-2.2-8.1h0c.1,5.8.2,13.6.2,22.4v24.1h-1.2Z"/>
      <path class="cls-1" d="M185.6,45.1v1.9c0,5.7,1.6,9,6.1,9s6.1-3.7,6.1-10.8-1.2-9.9-6-13.9c-4.6-3.7-6.4-6.5-6.4-13.8s1.9-9.6,6.6-9.6,6.4,3,6.4,9.4v1.9h-1.2v-1.9c0-5.7-1.4-8.3-5.3-8.3s-5.3,3.1-5.3,8.4,1,8.8,5.6,12.5c5.5,4.5,6.8,7.8,6.8,15.2s-.6,11.9-7.4,11.9-7.3-6.1-7.3-10.7v-1.3h1.2Z"/>
      <path class="cls-1" d="M206.8,8.5v48h-1.2V8.5h1.2Z"/>
      <path class="cls-1" d="M215.2,8.5h5.8c6.9,0,9.1,3.6,9.1,11.7v23c0,8.4-1.6,13.3-9.9,13.3h-5V8.5ZM216.4,55.4h3.9c5.5,0,8.6-2.6,8.6-11.2v-23.3c0-6.9-1-11.4-7.8-11.4h-4.7v45.8Z"/>
      <path class="cls-1" d="M248.8,31.1h-10.2v24.3h11.4l-.3,1.1h-12.4V8.5h12.2v1.1h-10.9v20.4h10.2v1.1Z"/>
    </g>
  </g>
  <rect class="cls-1" width="9.4" height="9.4"/>
  <rect class="cls-1" x="70.5" y="15.7" width="9.4" height="9.4"/>
  <rect class="cls-1" x="70.5" y="43.3" width="9.4" height="9.4"/>
  <rect class="cls-1" x="94.5" y="27.3" width="9.4" height="9.4"/>
  <rect class="cls-1" x="118.5" y="43.3" width="9.4" height="9.4"/>
  <rect class="cls-1" x="118.5" y="12" width="9.4" height="9.4"/>
  <rect class="cls-1" x="142.2" y="27.3" width="9.4" height="9.4"/>
  <rect class="cls-1" x="156.3" y="11" width="9.4" height="9.4"/>
  <rect class="cls-1" x="215.9" y="12" width="9.4" height="9.4"/>
  <rect class="cls-1" x="156.3" y="43.3" width="9.4" height="9.4"/>
  <rect class="cls-1" x="215.9" y="43.3" width="9.4" height="9.4"/>
  <rect class="cls-1" x="175.3" y="28.3" width="9.4" height="9.4"/>
  <rect class="cls-1" x="199.3" y="13" width="9.4" height="9.4"/>
  <rect class="cls-1" x="199.3" y="43.3" width="9.4" height="9.4"/>
  <rect class="cls-1" x="234.2" y="27.3" width="9.4" height="9.4"/>
  <rect class="cls-1" x="257.9" y="13" width="9.4" height="9.4"/>
  <rect class="cls-1" x="257.9" y="43.3" width="9.4" height="9.4"/>
  <rect class="cls-1" y="54.6" width="9.4" height="9.4"/>
  <rect class="cls-1" x="273.6" width="9.4" height="9.4"/>
  <rect class="cls-1" x="273.6" y="54.6" width="9.4" height="9.4"/>
</svg>